<svg preserveAspectRatio="none" width="100%" height="100%" overflow="visible" style="display: block;" viewBox="0 0 26.4519 21.8619" fill="none" xmlns="http://www.w3.org/2000/svg">
<path id="Vector" d="M13.1907 21.8012C13.0418 21.8821 12.862 21.8821 12.7131 21.8012L4.13542 17.1382C3.97444 17.0507 3.87422 16.8821 3.87422 16.6989V9.96049C3.87422 9.77709 3.77381 9.60841 3.6126 9.52097L0.261619 7.7035C-0.0870781 7.51438 -0.0872398 7.01397 0.261335 6.82462L12.7132 0.0606382C12.8621 -0.0202128 13.0417 -0.0202127 13.1905 0.0606384L26.1905 7.12237C26.3516 7.20985 26.4519 7.37845 26.4519 7.56173V16.4266C26.4519 16.7027 26.228 16.9266 25.9519 16.9266H25.4389C25.1628 16.9266 24.9389 16.7027 24.9389 16.4266V8.94721C24.9389 8.56996 24.5371 8.3286 24.2041 8.50581L22.2947 9.52179C22.1315 9.60861 22.0295 9.77837 22.0295 9.9632V16.6989C22.0295 16.8821 21.9293 17.0507 21.7684 17.1382L13.1907 21.8012ZM12.7137 12.7344C12.8623 12.8149 13.0415 12.8149 13.1901 12.7344L22.474 7.70394C22.823 7.5148 22.823 7.01385 22.474 6.82471L13.1901 1.79428C13.0415 1.71376 12.8623 1.71376 12.7137 1.79428L3.4298 6.82471C3.08074 7.01385 3.08074 7.5148 3.4298 7.70394L12.7137 12.7344ZM12.7143 20.0775C12.8626 20.1576 13.0412 20.1576 13.1895 20.0775L20.2542 16.2617C20.4159 16.1744 20.5166 16.0055 20.5166 15.8218V11.3347C20.5166 10.9558 20.1116 10.7146 19.7784 10.895L13.19 14.4641C13.0415 14.5446 12.8623 14.5446 12.7137 14.4641L6.12532 10.895C5.79217 10.7146 5.38716 10.9558 5.38716 11.3347V15.8218C5.38716 16.0055 5.48791 16.1744 5.64955 16.2617L12.7143 20.0775Z" fill="var(--fill-0, black)"/>
</svg>
