<svg preserveAspectRatio="none" width="100%" height="100%" overflow="visible" style="display: block;" viewBox="0 0 61.8826 31.7484" fill="none" xmlns="http://www.w3.org/2000/svg">
<g id="Group">
<path id="Vector" d="M30.9413 31.7484C48.0372 31.7484 61.8826 24.6386 61.8826 15.8779C61.8826 7.11716 48.0372 0 30.9413 0C13.8528 0 0 7.10982 0 15.8705C0 24.6312 13.8528 31.7484 30.9413 31.7484ZM36.7524 23.9489C36.2462 25.1375 35.351 27.6982 33.3186 28.7108C32.6949 29.0043 31.9245 29.1583 31.2568 29.1804C31.1027 29.2024 31 29.1804 30.9633 29.1804C25.2476 29.1804 19.9354 28.4026 15.4817 27.0379C15.445 27.0159 15.3422 26.9792 15.3422 26.9792C14.8947 26.8398 14.6819 26.649 14.6819 26.4142C14.6819 26.2161 14.7773 26.062 14.9387 25.9079C14.9974 25.8492 15.0928 25.7685 15.2102 25.6511C16.2227 24.7927 19.3484 22.5475 25.1522 20.2949C27.2066 19.5172 29.76 18.5413 32.4381 17.969C34.023 17.6682 39.8414 16.795 36.7524 23.9489ZM52.4175 7.96095C52.5129 7.76284 52.6743 7.59408 52.9458 7.59408C53.0999 7.57207 53.276 7.6161 53.5695 7.80686C57.2014 10.0447 59.3733 12.8402 59.3733 15.8705C59.3733 21.3515 52.3441 26.0473 42.3067 28.1091C41.6611 28.2485 41.2355 28.2485 41.0814 28.0724C40.986 27.955 40.942 27.8009 41.0814 27.5882C41.1401 27.4708 41.2208 27.3754 41.3529 27.236C46.8265 20.7792 51.0014 11.248 52.168 8.48189C52.2414 8.25444 52.3295 8.07834 52.4175 7.96095ZM25.2256 7.74817C25.7318 6.55953 26.627 3.99882 28.6594 2.98627C29.2831 2.67811 30.0535 2.5387 30.7212 2.51669C30.8753 2.51669 30.9927 2.51669 31.0293 2.51669C36.7231 2.51669 42.0426 3.31645 46.489 4.65917C46.5257 4.65917 46.6284 4.69586 46.6651 4.71787C47.076 4.85728 47.2888 5.04805 47.2888 5.28284C47.2888 5.49562 47.1714 5.63503 47.032 5.78911C46.9733 5.84781 46.8779 5.9432 46.7605 6.04592C45.7259 6.90438 42.6443 9.14958 36.8185 11.3728C34.764 12.1725 32.2107 13.1264 29.5325 13.7207C27.9477 14.0362 22.1366 14.9167 25.2256 7.74817ZM19.6199 3.63195C20.2656 3.49254 20.7718 3.49254 20.9039 3.66864C20.9993 3.76402 21.0433 3.94012 20.9039 4.1529C20.8452 4.2703 20.7645 4.36568 20.6471 4.51976C15.1662 10.9766 10.9986 20.5077 9.83195 23.2518C9.73657 23.4499 9.65586 23.6407 9.57515 23.7581C9.45775 23.9562 9.30367 24.1103 9.04686 24.125C8.90746 24.125 8.71669 24.0883 8.40118 23.9122C4.76923 21.6743 2.53136 18.8788 2.53136 15.8485C2.56071 10.3896 9.58982 5.68639 19.6199 3.63195Z" fill="var(--fill-0, #6B6B6B)"/>
<path id="Vector_2" d="M30.9413 0C13.8528 0 0 7.08781 0 15.8485C0 24.6092 13.8528 31.697 30.9413 31.697C48.0372 31.697 61.8826 24.5872 61.8826 15.8485C61.8826 7.08781 48.0372 0 30.9413 0ZM52.4469 26.2014C46.7311 29.129 39.1004 30.7505 30.9486 30.7505C22.7969 30.7505 15.1808 29.1217 9.46509 26.2014C3.96213 23.3692 0.946509 19.7079 0.946509 15.8632C0.946509 12.0185 3.97681 8.34982 9.47243 5.51763C15.1882 2.56805 22.8189 0.96852 30.9707 0.96852C39.1224 0.96852 46.7458 2.58272 52.4689 5.51763C57.9792 8.34982 60.9948 12.0185 60.9948 15.8559C60.9948 19.6933 57.9572 23.3692 52.4469 26.2014Z" fill="var(--fill-0, #6B6B6B)"/>
</g>
</svg>
